<mxfile host="app.diagrams.net" modified="2023-09-12T19:55:38.528Z" agent="Mozilla/5.0 (Windows NT 10.0; Win64; x64) AppleWebKit/537.36 (KHTML, like Gecko) Chrome/116.0.0.0 Safari/537.36" etag="l7hEzZjHYycuba3ihngg" version="21.7.4" type="google">
  <diagram name="Página-1" id="c6vsh_rJmeAS8LaulAuQ">
    <mxGraphModel grid="1" page="1" gridSize="10" guides="1" tooltips="1" connect="1" arrows="1" fold="1" pageScale="1" pageWidth="827" pageHeight="1169" math="0" shadow="0">
      <root>
        <mxCell id="0" />
        <mxCell id="1" parent="0" />
        <mxCell id="oc9tW7FKgQso1-N_iQmF-10" value="" style="edgeStyle=orthogonalEdgeStyle;rounded=0;orthogonalLoop=1;jettySize=auto;html=1;" edge="1" parent="1" source="oc9tW7FKgQso1-N_iQmF-1" target="oc9tW7FKgQso1-N_iQmF-2">
          <mxGeometry relative="1" as="geometry" />
        </mxCell>
        <mxCell id="oc9tW7FKgQso1-N_iQmF-1" value="" style="ellipse;html=1;shape=endState;fillColor=#FFFFFF;strokeColor=#000000;" vertex="1" parent="1">
          <mxGeometry x="50" y="15" width="30" height="30" as="geometry" />
        </mxCell>
        <mxCell id="oc9tW7FKgQso1-N_iQmF-11" style="edgeStyle=orthogonalEdgeStyle;rounded=0;orthogonalLoop=1;jettySize=auto;html=1;entryX=0;entryY=0.5;entryDx=0;entryDy=0;" edge="1" parent="1" source="oc9tW7FKgQso1-N_iQmF-2" target="oc9tW7FKgQso1-N_iQmF-6">
          <mxGeometry relative="1" as="geometry" />
        </mxCell>
        <mxCell id="oc9tW7FKgQso1-N_iQmF-2" value="verificar disponibilidade do livro" style="rounded=1;whiteSpace=wrap;html=1;" vertex="1" parent="1">
          <mxGeometry x="150" width="120" height="60" as="geometry" />
        </mxCell>
        <mxCell id="oc9tW7FKgQso1-N_iQmF-16" style="edgeStyle=orthogonalEdgeStyle;rounded=0;orthogonalLoop=1;jettySize=auto;html=1;entryX=0.5;entryY=0;entryDx=0;entryDy=0;" edge="1" parent="1" source="oc9tW7FKgQso1-N_iQmF-6" target="oc9tW7FKgQso1-N_iQmF-12">
          <mxGeometry relative="1" as="geometry" />
        </mxCell>
        <mxCell id="oc9tW7FKgQso1-N_iQmF-6" value="o livro está disponível" style="rounded=1;whiteSpace=wrap;html=1;" vertex="1" parent="1">
          <mxGeometry x="390" width="120" height="60" as="geometry" />
        </mxCell>
        <mxCell id="oc9tW7FKgQso1-N_iQmF-24" style="edgeStyle=orthogonalEdgeStyle;rounded=0;orthogonalLoop=1;jettySize=auto;html=1;entryX=1;entryY=0.5;entryDx=0;entryDy=0;" edge="1" parent="1" source="oc9tW7FKgQso1-N_iQmF-7" target="oc9tW7FKgQso1-N_iQmF-23">
          <mxGeometry relative="1" as="geometry" />
        </mxCell>
        <mxCell id="oc9tW7FKgQso1-N_iQmF-7" value="entregar livro ao usuário" style="rounded=1;whiteSpace=wrap;html=1;" vertex="1" parent="1">
          <mxGeometry x="150" y="380" width="120" height="60" as="geometry" />
        </mxCell>
        <mxCell id="oc9tW7FKgQso1-N_iQmF-27" style="edgeStyle=orthogonalEdgeStyle;rounded=0;orthogonalLoop=1;jettySize=auto;html=1;" edge="1" parent="1" source="oc9tW7FKgQso1-N_iQmF-8" target="oc9tW7FKgQso1-N_iQmF-26">
          <mxGeometry relative="1" as="geometry" />
        </mxCell>
        <mxCell id="oc9tW7FKgQso1-N_iQmF-8" value="registrar empréstimo" style="rounded=1;whiteSpace=wrap;html=1;" vertex="1" parent="1">
          <mxGeometry x="390" y="350" width="120" height="60" as="geometry" />
        </mxCell>
        <mxCell id="oc9tW7FKgQso1-N_iQmF-35" style="edgeStyle=orthogonalEdgeStyle;rounded=0;orthogonalLoop=1;jettySize=auto;html=1;entryX=0.5;entryY=0;entryDx=0;entryDy=0;" edge="1" parent="1" source="oc9tW7FKgQso1-N_iQmF-9" target="oc9tW7FKgQso1-N_iQmF-32">
          <mxGeometry relative="1" as="geometry" />
        </mxCell>
        <mxCell id="oc9tW7FKgQso1-N_iQmF-9" value="usuário cadastrado?&amp;nbsp;" style="rounded=1;whiteSpace=wrap;html=1;" vertex="1" parent="1">
          <mxGeometry x="390" y="180" width="120" height="60" as="geometry" />
        </mxCell>
        <mxCell id="oc9tW7FKgQso1-N_iQmF-12" value="" style="rhombus;whiteSpace=wrap;html=1;fontColor=#000000;fillColor=#ffffc0;strokeColor=#ff0000;" vertex="1" parent="1">
          <mxGeometry x="410" y="100" width="80" height="40" as="geometry" />
        </mxCell>
        <mxCell id="oc9tW7FKgQso1-N_iQmF-13" value="não" style="edgeStyle=orthogonalEdgeStyle;html=1;align=left;verticalAlign=bottom;endArrow=open;endSize=8;strokeColor=#ff0000;rounded=0;" edge="1" parent="1" source="oc9tW7FKgQso1-N_iQmF-12">
          <mxGeometry x="-1" relative="1" as="geometry">
            <mxPoint x="610" y="120" as="targetPoint" />
          </mxGeometry>
        </mxCell>
        <mxCell id="oc9tW7FKgQso1-N_iQmF-14" value="sim" style="edgeStyle=orthogonalEdgeStyle;html=1;align=left;verticalAlign=top;endArrow=open;endSize=8;strokeColor=#ff0000;rounded=0;entryX=0.575;entryY=0;entryDx=0;entryDy=0;entryPerimeter=0;" edge="1" parent="1" source="oc9tW7FKgQso1-N_iQmF-12" target="oc9tW7FKgQso1-N_iQmF-9">
          <mxGeometry x="-0.5918" y="10" relative="1" as="geometry">
            <mxPoint x="360" y="300" as="targetPoint" />
            <Array as="points">
              <mxPoint x="450" y="160" />
              <mxPoint x="459" y="160" />
            </Array>
            <mxPoint as="offset" />
          </mxGeometry>
        </mxCell>
        <mxCell id="oc9tW7FKgQso1-N_iQmF-46" style="edgeStyle=orthogonalEdgeStyle;rounded=0;orthogonalLoop=1;jettySize=auto;html=1;entryX=1;entryY=0.5;entryDx=0;entryDy=0;" edge="1" parent="1" source="oc9tW7FKgQso1-N_iQmF-17" target="oc9tW7FKgQso1-N_iQmF-9">
          <mxGeometry relative="1" as="geometry">
            <Array as="points">
              <mxPoint x="670" y="210" />
            </Array>
          </mxGeometry>
        </mxCell>
        <mxCell id="oc9tW7FKgQso1-N_iQmF-17" value="livros semelhantes" style="rounded=1;whiteSpace=wrap;html=1;" vertex="1" parent="1">
          <mxGeometry x="610" y="90" width="120" height="60" as="geometry" />
        </mxCell>
        <mxCell id="oc9tW7FKgQso1-N_iQmF-23" value="" style="ellipse;html=1;shape=endState;fillColor=#FFFFFF;strokeColor=#ff0000;" vertex="1" parent="1">
          <mxGeometry x="180" y="330" width="30" height="30" as="geometry" />
        </mxCell>
        <mxCell id="oc9tW7FKgQso1-N_iQmF-25" value="FIM DO&amp;nbsp;&lt;br&gt;PROCESSO" style="text;html=1;align=center;verticalAlign=middle;resizable=0;points=[];autosize=1;strokeColor=none;fillColor=none;" vertex="1" parent="1">
          <mxGeometry x="90" y="330" width="90" height="40" as="geometry" />
        </mxCell>
        <mxCell id="oc9tW7FKgQso1-N_iQmF-28" style="edgeStyle=orthogonalEdgeStyle;rounded=0;orthogonalLoop=1;jettySize=auto;html=1;entryX=1;entryY=0.5;entryDx=0;entryDy=0;" edge="1" parent="1" source="oc9tW7FKgQso1-N_iQmF-26" target="oc9tW7FKgQso1-N_iQmF-7">
          <mxGeometry relative="1" as="geometry" />
        </mxCell>
        <mxCell id="oc9tW7FKgQso1-N_iQmF-26" value="emissão do comprovante" style="rounded=1;whiteSpace=wrap;html=1;" vertex="1" parent="1">
          <mxGeometry x="390" y="440" width="120" height="60" as="geometry" />
        </mxCell>
        <mxCell id="oc9tW7FKgQso1-N_iQmF-32" value="" style="rhombus;whiteSpace=wrap;html=1;fontColor=#000000;fillColor=#ffffc0;strokeColor=#ff0000;" vertex="1" parent="1">
          <mxGeometry x="410" y="280" width="80" height="40" as="geometry" />
        </mxCell>
        <mxCell id="oc9tW7FKgQso1-N_iQmF-33" value="no" style="edgeStyle=orthogonalEdgeStyle;html=1;align=left;verticalAlign=bottom;endArrow=open;endSize=8;strokeColor=#ff0000;rounded=0;entryX=0.575;entryY=-0.033;entryDx=0;entryDy=0;entryPerimeter=0;" edge="1" parent="1" source="oc9tW7FKgQso1-N_iQmF-32" target="oc9tW7FKgQso1-N_iQmF-36">
          <mxGeometry x="-1" relative="1" as="geometry">
            <mxPoint x="560" y="360" as="targetPoint" />
          </mxGeometry>
        </mxCell>
        <mxCell id="oc9tW7FKgQso1-N_iQmF-34" value="yes" style="edgeStyle=orthogonalEdgeStyle;html=1;align=left;verticalAlign=top;endArrow=open;endSize=8;strokeColor=#ff0000;rounded=0;" edge="1" parent="1" source="oc9tW7FKgQso1-N_iQmF-32">
          <mxGeometry x="-1" relative="1" as="geometry">
            <mxPoint x="450" y="350" as="targetPoint" />
          </mxGeometry>
        </mxCell>
        <mxCell id="oc9tW7FKgQso1-N_iQmF-45" style="edgeStyle=orthogonalEdgeStyle;rounded=0;orthogonalLoop=1;jettySize=auto;html=1;entryX=1;entryY=0.5;entryDx=0;entryDy=0;" edge="1" parent="1" source="oc9tW7FKgQso1-N_iQmF-36" target="oc9tW7FKgQso1-N_iQmF-8">
          <mxGeometry relative="1" as="geometry" />
        </mxCell>
        <mxCell id="oc9tW7FKgQso1-N_iQmF-36" value="Criar cadastro" style="rounded=1;whiteSpace=wrap;html=1;" vertex="1" parent="1">
          <mxGeometry x="610" y="350" width="120" height="60" as="geometry" />
        </mxCell>
      </root>
    </mxGraphModel>
  </diagram>
</mxfile>
